name rise49.5252peak65.1548fall88.8305.mot
datacolumns 19
datarows 29
range 8.75496400000000 8.80162600000000
endheader
time	ground_force1_vx	ground_force1_vy	ground_force1_vz	ground_force1_px	ground_force1_py	ground_force1_pz	ground_force2_vx	ground_force2_vy	ground_force2_vz	ground_force2_px	ground_force2_py	ground_force2_pz	ground_torque1_x	ground_torque1_y	ground_torque1_z	ground_torque2_x	ground_torque2_y	ground_torque2_z	
8.75496400000000	-11.50104300000000	40.39054300000000	-10.62678100000000	0.36107700000000	0.00000000000000	0.10029900000000	-53.70348400000000	798.93340400000000	-58.46735100000000	0.18972600000000	0.00000000000000	-0.08922400000000	0.00000000000000	-7.26098400000000	0.00000000000000	0.00000000000000	-30.91917400000000	0.00000000000000	
8.75663000000000	-12.69832600000000	47.39741300000000	-11.96836500000000	0.36624000000000	0.00000000000000	0.10111100000000	-54.73560900000000	796.75920099999996	-58.17562300000000	0.18863300000000	0.00000000000000	-0.08913800000000	0.00000000000000	-8.27505100000000	0.00000000000000	0.00000000000000	-30.87450000000000	0.00000000000000	
8.75829400000000	-13.70186900000000	54.51011700000000	-13.19347100000000	0.37089300000000	0.00000000000000	0.10185700000000	-55.77627900000000	794.42707700000005	-57.85703000000000	0.18753400000000	0.00000000000000	-0.08904800000000	0.00000000000000	-9.22777600000000	0.00000000000000	0.00000000000000	-30.82485500000000	0.00000000000000	
8.75996200000000	-14.48091200000000	61.63944100000000	-14.27374100000000	0.37511900000000	0.00000000000000	0.10254500000000	-56.82406000000000	791.93342299999995	-57.51121900000000	0.18643000000000	0.00000000000000	-0.08895500000000	0.00000000000000	-10.09795500000000	0.00000000000000	0.00000000000000	-30.77001600000000	0.00000000000000	
8.76162500000000	-15.01680500000000	68.71797400000000	-15.19011300000000	0.37898200000000	0.00000000000000	0.10318500000000	-57.87741200000000	789.27464899999995	-57.13787700000000	0.18532100000000	0.00000000000000	-0.08886000000000	0.00000000000000	-10.87052800000000	0.00000000000000	0.00000000000000	-30.70974900000000	0.00000000000000	
8.76329900000000	-15.30289900000000	75.70224200000000	-15.93298000000000	0.38253400000000	0.00000000000000	0.10378400000000	-58.93469200000000	786.44719399999997	-56.73673500000000	0.18420800000000	0.00000000000000	-0.08876100000000	0.00000000000000	-11.53683700000000	0.00000000000000	0.00000000000000	-30.64381500000000	0.00000000000000	
8.76496400000000	-15.34345800000000	82.57251900000000	-16.50154300000000	0.38582000000000	0.00000000000000	0.10434600000000	-59.99415500000000	783.44753300000002	-56.30756900000000	0.18309100000000	0.00000000000000	-0.08866000000000	0.00000000000000	-12.09432300000000	0.00000000000000	0.00000000000000	-30.57196700000000	0.00000000000000	
8.76662600000000	-15.15188300000000	89.33071099999999	-16.90255700000000	0.38887400000000	0.00000000000000	0.10487700000000	-61.05395900000000	780.27218900000003	-55.85020300000000	0.18197100000000	0.00000000000000	-0.08855500000000	0.00000000000000	-12.54577600000000	0.00000000000000	0.00000000000000	-30.49395300000000	0.00000000000000	
8.76829100000000	-14.74847300000000	95.99682100000000	-17.14867600000000	0.39172500000000	0.00000000000000	0.10537900000000	-62.11216600000000	776.91774099999998	-55.36451100000000	0.18084900000000	0.00000000000000	-0.08844700000000	0.00000000000000	-12.89827000000000	0.00000000000000	0.00000000000000	-30.40951500000000	0.00000000000000	
8.76995800000000	-14.15802400000000	102.60454300000001	-17.25660000000000	0.39439900000000	0.00000000000000	0.10585700000000	-63.16674500000000	773.38084000000003	-54.85042000000000	0.17972500000000	0.00000000000000	-0.08833600000000	0.00000000000000	-13.16192800000000	0.00000000000000	0.00000000000000	-30.31839400000000	0.00000000000000	
8.77162600000000	-13.40746500000000	109.19648599999999	-17.24522300000000	0.39691600000000	0.00000000000000	0.10631300000000	-64.21558000000000	769.65821700000004	-54.30791000000000	0.17859900000000	0.00000000000000	-0.08822100000000	0.00000000000000	-13.34866500000000	0.00000000000000	0.00000000000000	-30.22032300000000	0.00000000000000	
8.77330800000000	-12.52373700000000	115.81950500000001	-17.13391200000000	0.39929400000000	0.00000000000000	0.10674800000000	-65.25647100000000	765.74670000000003	-53.73702100000000	0.17747300000000	0.00000000000000	-0.08810300000000	0.00000000000000	-13.47098700000000	0.00000000000000	0.00000000000000	-30.11503800000000	0.00000000000000	
8.77496600000000	-11.53202400000000	122.52046500000000	-16.94105600000000	0.40154700000000	0.00000000000000	0.10716600000000	-66.28713999999999	761.64322700000002	-53.13784700000000	0.17634700000000	0.00000000000000	-0.08798200000000	0.00000000000000	-13.54096200000000	0.00000000000000	0.00000000000000	-30.00227200000000	0.00000000000000	
8.77662400000000	-10.45443200000000	129.34272000000001	-16.68293700000000	0.40368800000000	0.00000000000000	0.10756600000000	-67.30523800000000	757.34486200000003	-52.51054500000000	0.17522200000000	0.00000000000000	-0.08785800000000	0.00000000000000	-13.56939700000000	0.00000000000000	0.00000000000000	-29.88175600000000	0.00000000000000	
8.77829300000000	-9.30912800000000	136.32343499999999	-16.37295600000000	0.40572900000000	0.00000000000000	0.10795200000000	-68.30834700000000	752.84881099999996	-51.85533400000000	0.17409800000000	0.00000000000000	-0.08773100000000	0.00000000000000	-13.56525700000000	0.00000000000000	0.00000000000000	-29.75322600000000	0.00000000000000	
8.77996100000000	-8.10992400000000	143.49182400000001	-16.02122100000000	0.40767700000000	0.00000000000000	0.10832300000000	-69.29399300000000	748.15243899999996	-51.17249200000000	0.17297600000000	0.00000000000000	-0.08760000000000	0.00000000000000	-13.53532600000000	0.00000000000000	0.00000000000000	-29.61641500000000	0.00000000000000	
8.78162600000000	-6.86626700000000	150.86825300000001	-15.63444700000000	0.40954200000000	0.00000000000000	0.10868200000000	-70.25964500000001	743.25328600000000	-50.46236300000000	0.17185800000000	0.00000000000000	-0.08746500000000	0.00000000000000	-13.48409600000000	0.00000000000000	0.00000000000000	-29.47106500000000	0.00000000000000	
8.78329500000000	-5.58355800000000	158.46413799999999	-15.21614000000000	0.41133000000000	0.00000000000000	0.10902800000000	-71.20272799999999	738.14908600000001	-49.72535500000000	0.17074400000000	0.00000000000000	-0.08732700000000	0.00000000000000	-13.41384600000000	0.00000000000000	0.00000000000000	-29.31691600000000	0.00000000000000	
8.78496600000000	-4.26370700000000	166.28248700000000	-14.76697800000000	0.41304800000000	0.00000000000000	0.10936300000000	-72.12062600000000	732.83778700000005	-48.96194000000000	0.16963400000000	0.00000000000000	-0.08718600000000	0.00000000000000	-13.32488300000000	0.00000000000000	0.00000000000000	-29.15371600000000	0.00000000000000	
8.78663300000000	-2.90585400000000	174.31893199999999	-14.28534400000000	0.41469900000000	0.00000000000000	0.10968700000000	-73.01069300000000	727.31755999999996	-48.17265500000000	0.16853000000000	0.00000000000000	-0.08704100000000	0.00000000000000	-13.21587700000000	0.00000000000000	0.00000000000000	-28.98122000000000	0.00000000000000	
8.78829000000000	-1.50716700000000	182.56308000000001	-13.76793000000000	0.41628800000000	0.00000000000000	0.11000200000000	-73.87026000000000	721.58682199999998	-47.35810300000000	0.16743200000000	0.00000000000000	-0.08689300000000	0.00000000000000	-13.08427000000000	0.00000000000000	0.00000000000000	-28.79918700000000	0.00000000000000	
8.78996000000000	-0.06363300000000	191.00003000000001	-13.21036100000000	0.41782000000000	0.00000000000000	0.11030600000000	-74.69664000000000	715.64425100000005	-46.51895100000000	0.16634200000000	0.00000000000000	-0.08674100000000	0.00000000000000	-12.92670200000000	0.00000000000000	0.00000000000000	-28.60738700000000	0.00000000000000	
8.79162700000000	1.42920100000000	199.61190300000001	-12.60778400000000	0.41929700000000	0.00000000000000	0.11060200000000	-75.48714200000001	709.48879199999999	-45.65593100000000	0.16525900000000	0.00000000000000	-0.08658500000000	0.00000000000000	-12.73942000000000	0.00000000000000	0.00000000000000	-28.40559600000000	0.00000000000000	
8.79329800000000	2.97559000000000	208.37928199999999	-11.95539300000000	0.42072200000000	0.00000000000000	0.11088800000000	-76.23907400000000	703.11967900000002	-44.76983900000000	0.16418500000000	0.00000000000000	-0.08642600000000	0.00000000000000	-12.51865000000000	0.00000000000000	0.00000000000000	-28.19360400000000	0.00000000000000	
8.79496100000000	4.57908400000000	217.28246500000000	-11.24885800000000	0.42209700000000	0.00000000000000	0.11116700000000	-76.94975900000000	696.53643699999998	-43.86153600000000	0.16312100000000	0.00000000000000	-0.08626300000000	0.00000000000000	-12.26090100000000	0.00000000000000	0.00000000000000	-27.97121000000000	0.00000000000000	
8.79662800000000	6.24216000000000	226.30247600000001	-10.48464000000000	0.42342400000000	0.00000000000000	0.11143700000000	-77.61653600000000	689.73889299999996	-42.93194500000000	0.16206700000000	0.00000000000000	-0.08609700000000	0.00000000000000	-11.96320200000000	0.00000000000000	0.00000000000000	-27.73822700000000	0.00000000000000	
8.79829300000000	7.96600300000000	235.42181900000000	-9.66020600000000	0.42470500000000	0.00000000000000	0.11169900000000	-78.23677900000000	682.72718599999996	-41.98205400000000	0.16102500000000	0.00000000000000	-0.08592700000000	0.00000000000000	-11.62326300000000	0.00000000000000	0.00000000000000	-27.49448100000000	0.00000000000000	
8.79996300000000	9.75040900000000	244.62495200000001	-8.77413100000000	0.42594100000000	0.00000000000000	0.11195400000000	-78.80789900000001	675.50176599999998	-41.01290900000000	0.15999500000000	0.00000000000000	-0.08575300000000	0.00000000000000	-11.23956100000000	0.00000000000000	0.00000000000000	-27.23981600000000	0.00000000000000	
8.80162600000000	11.59380800000000	253.89852700000000	-7.82611300000000	0.42713200000000	0.00000000000000	0.11220100000000	-79.32736199999999	668.06340399999999	-40.02562100000000	0.15897700000000	0.00000000000000	-0.08557500000000	0.00000000000000	-10.81136100000000	0.00000000000000	0.00000000000000	-26.97409200000000	0.00000000000000	
